<svg xmlns="http://www.w3.org/2000/svg" version="1.1" xmlns:xlink="http://www.w3.org/1999/xlink" xmlns:svgjs="http://svgjs.dev/svgjs" width="2000" height="272" viewBox="0 0 2000 272"><g transform="matrix(1,0,0,1,-1.2121212121212466,0.5008978535649078)"><svg viewBox="0 0 396 54" data-background-color="#ffffff" preserveAspectRatio="xMidYMid meet" height="272" width="2000" xmlns="http://www.w3.org/2000/svg" xmlns:xlink="http://www.w3.org/1999/xlink"><g id="tight-bounds" transform="matrix(1,0,0,1,0.2400000000000091,-0.09944295622244681)"><svg viewBox="0 0 395.52 54.198885912444915" height="54.198885912444915" width="395.52"><g><svg viewBox="0 0 395.52 54.198885912444915" height="54.198885912444915" width="395.52"><g><svg viewBox="0 0 479.5604971384061 65.71512103691302" height="54.198885912444915" width="395.52"><g transform="matrix(1,0,0,1,0,13.451335297030948)"><svg viewBox="0 0 395.52000000000004 38.81245044285112" height="38.81245044285112" width="395.52000000000004"><g id="textblocktransform"><svg viewBox="0 0 395.52000000000004 38.81245044285112" height="38.81245044285112" width="395.52000000000004" id="textblock"><g><svg viewBox="0 0 395.52000000000004 38.81245044285112" height="38.81245044285112" width="395.52000000000004"><g transform="matrix(1,0,0,1,0,0)"><svg width="395.52000000000004" viewBox="3.3 -34.55 354.93 34.9" height="38.81245044285112" data-palette-color="#ea3c12"><g class="wordmark-text-0" data-fill-palette-color="primary" id="text-0"><path d="M32.85-5.2L32.85-18.3 26.6-5.5Q25.8-3.9 24.9-3.23 24-2.55 22.75-2.55L22.75-2.55Q21.15-2.55 20.05-3.68 18.95-4.8 17.2-7.75L17.2-7.75 11.4-18.3 11.4-4.15Q11.4-2 10.43-1 9.45 0 7.5 0L7.5 0Q5.3 0 4.3-0.98 3.3-1.95 3.3-4.8L3.3-4.8 3.3-26.6Q3.3-30.45 5.05-32.4 6.8-34.35 10.95-34.35L10.95-34.35Q12.5-34.35 13.65-33.83 14.8-33.3 15.38-32.63 15.95-31.95 16.5-30.95L16.5-30.95 23.2-16.3 30.3-30.7Q32.15-34.3 36.95-34.3L36.95-34.3Q39.2-34.3 40.8-33.52 42.4-32.75 43.33-31.03 44.25-29.3 44.25-26.7L44.25-26.7 44.25-4.95Q44.2 0 38 0L38 0Q35.75 0 34.33-1.23 32.9-2.45 32.85-5.2L32.85-5.2ZM81.15-28.25L81.15-28.25 81.15-13.35Q81.15-6.05 77.62-2.88 74.1 0.3 65.75 0.3L65.75 0.3Q57.8 0.3 54.07-3.1 50.35-6.5 50.35-13.35L50.35-13.35 50.35-28.25Q50.35-30.9 51.92-32.58 53.5-34.25 55.9-34.25L55.9-34.25Q58.85-34.25 60.37-33.15 61.9-32.05 61.9-28.7L61.9-28.7 61.9-12.4Q61.95-10.8 62.42-9.85 62.9-8.9 63.7-8.53 64.5-8.15 65.75-8.15 67-8.15 67.8-8.45 68.6-8.75 68.97-9.4 69.35-10.05 69.47-10.7 69.6-11.35 69.6-12.4L69.6-12.4 69.6-28.75Q69.6-30.45 70.02-31.6 70.45-32.75 71.32-33.3 72.2-33.85 73.12-34.05 74.05-34.25 75.35-34.25L75.35-34.25Q78.25-34.25 79.7-32.85 81.15-31.45 81.15-28.25ZM119.6-29.95L119.6-4.75Q119.6-2.55 118.3-1.28 117 0 114.5 0L114.5 0Q113.85 0 113.2-0.15 112.55-0.3 111.82-0.7 111.1-1.1 110.55-1.45 110-1.8 109.17-2.53 108.35-3.25 107.87-3.68 107.4-4.1 106.4-5.05 105.4-6 104.95-6.45L104.95-6.45 95.8-15.1 95.8-4.25Q95.8-1.8 94.87-0.9 93.95 0 91.95 0L91.95 0Q89.75 0 88.7-1 87.65-2 87.65-4.35L87.65-4.35 87.65-28.5Q87.65-31.35 89.1-32.8 90.55-34.25 93.25-34.25L93.25-34.25Q95.1-34.25 96.22-33.68 97.35-33.1 98.9-31.6L98.9-31.6 111.55-19 111.55-29.9Q111.55-32.05 112.62-33.13 113.7-34.2 115.55-34.2L115.55-34.2Q117.7-34.2 118.65-33.2 119.6-32.2 119.6-29.95L119.6-29.95ZM145.54-25.85L145.54-25.85Q145.54-27.4 143.49-27.4L143.49-27.4Q141.39-27.4 139.89-25.05 138.39-22.7 138.39-17.2L138.39-17.2Q138.39-12.1 140.12-9.78 141.84-7.45 144.19-7.45L144.19-7.45Q144.94-7.45 145.57-7.75 146.19-8.05 146.59-8.65 146.99-9.25 146.99-10.1L146.99-10.1Q145.79-10.1 144.92-10.55 144.04-11 143.64-11.68 143.24-12.35 143.24-13.15L143.24-13.15Q143.24-14.95 144.19-15.85 145.14-16.75 147.44-16.75L147.44-16.75 153.49-16.75Q156.39-16.75 157.99-15.5 159.59-14.25 159.59-11.1L159.59-11.1Q159.59-6.5 155.19-3.08 150.79 0.35 144.74 0.35L144.74 0.35Q139.19 0.35 134.87-1.65 130.54-3.65 128.02-7.63 125.49-11.6 125.49-17.05L125.49-17.05Q125.49-25.15 130.39-29.85 135.29-34.55 143.39-34.55L143.39-34.55Q146.59-34.55 149.14-34.08 151.69-33.6 153.37-32.8 155.04-32 156.17-30.88 157.29-29.75 157.77-28.5 158.24-27.25 158.24-25.9L158.24-25.9Q158.24-24.95 157.94-24.08 157.64-23.2 156.87-22.33 156.09-21.45 154.49-20.9 152.89-20.35 150.64-20.35L150.64-20.35Q147.34-20.35 146.44-21.33 145.54-22.3 145.54-25.85ZM182.14-7L182.14-7Q183.84-7 185.07-8.5 186.29-10 186.82-12.2 187.34-14.4 187.34-16.9L187.34-16.9Q187.34-19.45 186.79-21.73 186.24-24 185.02-25.6 183.79-27.2 182.14-27.2L182.14-27.2Q180.54-27.2 179.34-25.6 178.14-24 177.54-21.7 176.94-19.4 176.94-16.9L176.94-16.9Q176.94-14.4 177.52-12.2 178.09-10 179.32-8.5 180.54-7 182.14-7ZM190.99-1.68Q187.04 0.3 182.12 0.3 177.19 0.3 173.27-1.68 169.34-3.65 166.99-7.6 164.64-11.55 164.64-16.9L164.64-16.9Q164.64-25 169.52-29.78 174.39-34.55 182.14-34.55 189.89-34.55 194.79-29.78 199.69-25 199.69-16.9L199.69-16.9Q199.69-11.55 197.32-7.6 194.94-3.65 190.99-1.68Z" fill="#ea3c12" data-fill-palette-color="primary"></path><path d="M246.04-5.2L246.04-18.3 239.79-5.5Q238.99-3.9 238.09-3.23 237.19-2.55 235.94-2.55L235.94-2.55Q234.34-2.55 233.24-3.68 232.14-4.8 230.39-7.75L230.39-7.75 224.59-18.3 224.59-4.15Q224.59-2 223.61-1 222.64 0 220.69 0L220.69 0Q218.49 0 217.49-0.98 216.49-1.95 216.49-4.8L216.49-4.8 216.49-26.6Q216.49-30.45 218.24-32.4 219.99-34.35 224.14-34.35L224.14-34.35Q225.69-34.35 226.84-33.83 227.99-33.3 228.56-32.63 229.14-31.95 229.69-30.95L229.69-30.95 236.39-16.3 243.49-30.7Q245.34-34.3 250.14-34.3L250.14-34.3Q252.39-34.3 253.99-33.52 255.59-32.75 256.51-31.03 257.44-29.3 257.44-26.7L257.44-26.7 257.44-4.95Q257.39 0 251.19 0L251.19 0Q248.94 0 247.51-1.23 246.09-2.45 246.04-5.2L246.04-5.2ZM275.59-20.3L284.19-20.3Q286.84-20.3 287.91-19.45 288.99-18.6 288.99-16.55L288.99-16.55Q288.99-14.85 287.71-14.13 286.44-13.4 283.74-13.4L283.74-13.4 275.64-13.4 275.64-8.1 286.49-8.05Q289.29-8.05 290.51-7.23 291.74-6.4 291.74-4.3L291.74-4.3Q291.74-1.9 290.31-0.95 288.89 0 285.99 0L285.99 0 269.79 0Q266.84 0 265.46-1.58 264.09-3.15 264.09-7.15L264.09-7.15 264.09-28.25Q264.09-34.25 269.79-34.25L269.79-34.25 285.99-34.25Q288.89-34.25 290.31-33.35 291.74-32.45 291.74-30.1L291.74-30.1Q291.74-27.9 290.51-27.03 289.29-26.15 286.49-26.15L286.49-26.15 275.59-26.15 275.59-20.3ZM312.13-26.1L312.13-26.1Q309.98-26.1 308.96-24.85 307.93-23.6 307.93-20.4L307.93-20.4 307.93-14.5 316.23-14.5 316.23-20.5Q316.23-22.6 315.73-23.88 315.23-25.15 314.36-25.63 313.48-26.1 312.13-26.1ZM316.23-4.95L316.23-7.6 307.93-7.6 307.93-4.95Q307.93-2.4 306.58-1.2 305.23 0 301.93 0L301.93 0Q300.53 0 299.63-0.4 298.73-0.8 298.06-1.75 297.38-2.7 297.06-4.53 296.73-6.35 296.56-8.93 296.38-11.5 296.38-15.45L296.38-15.45Q296.38-18.9 297.11-21.78 297.83-24.65 299.06-26.65 300.28-28.65 301.83-30.18 303.38-31.7 305.21-32.55 307.03-33.4 308.76-33.83 310.48-34.25 312.23-34.25L312.23-34.25Q314.33-34.25 316.38-33.68 318.43-33.1 320.53-31.7 322.63-30.3 324.21-28.23 325.78-26.15 326.78-22.85 327.78-19.55 327.78-15.45L327.78-15.45Q327.78-8.85 327.31-5.68 326.83-2.5 325.71-1.25 324.58 0 322.23 0L322.23 0Q318.93 0 317.58-1.2 316.23-2.4 316.23-4.95L316.23-4.95ZM352.48 0L339.43 0Q337.13-0.05 335.73-0.73 334.33-1.4 333.63-2.95 332.93-4.5 332.93-7.1L332.93-7.1 332.93-28.25Q332.93-30.9 334.48-32.58 336.03-34.25 338.58-34.25L338.58-34.25Q341.58-34.25 343.01-33.15 344.43-32.05 344.43-28.7L344.43-28.7 344.43-8.65 352.98-8.65Q355.88-8.65 357.06-7.8 358.23-6.95 358.23-4.3L358.23-4.3Q358.23-1.6 356.88-0.8 355.53 0 352.48 0L352.48 0Z" fill="#ea3c12" data-fill-palette-color="primary"></path></g></svg></g></svg></g></svg></g></svg></g><g transform="matrix(1,0,0,1,413.84537610149306,0)"><svg viewBox="0 0 65.71512103691302 65.71512103691302" height="65.71512103691302" width="65.71512103691302"><g><svg></svg></g><g id="icon-0"><svg viewBox="0 0 65.71512103691302 65.71512103691302" height="65.71512103691302" width="65.71512103691302"><g><path d="M0 32.858c0-18.147 14.711-32.858 32.858-32.858 18.147 0 32.858 14.711 32.857 32.858 0 18.147-14.711 32.858-32.857 32.857-18.147 0-32.858-14.711-32.858-32.857zM32.858 62.215c16.214 0 29.357-13.144 29.357-29.357 0-16.214-13.144-29.357-29.357-29.358-16.214 0-29.357 13.144-29.358 29.358 0 16.214 13.144 29.357 29.358 29.357z" data-fill-palette-color="accent" fill="#ea3c12" stroke="transparent"></path></g><g transform="matrix(1,0,0,1,16.85383818356789,18.58019943220741)"><svg viewBox="0 0 32.007444669777236 28.554722172498195" height="28.554722172498195" width="32.007444669777236"><g><svg xmlns="http://www.w3.org/2000/svg" xmlns:xlink="http://www.w3.org/1999/xlink" version="1.1" x="0" y="0" viewBox="8.386999999999999 13.004999999999999 84.192 75.11" enable-background="new 0 0 100 100" xml:space="preserve" height="28.554722172498195" width="32.007444669777236" class="icon-cg-0" data-fill-palette-color="accent" id="cg-0"><g fill="#ea3c12" data-fill-palette-color="accent"><path d="M49.569 22.967c-9.975-5.691-20.677-9.125-31.045-9.962v58.351c10.367 0.814 21.05 4.154 31.045 9.699V22.967z" fill="#ea3c12" data-fill-palette-color="accent"></path><path d="M49.229 84.073c0.814 0.278 1.671 0.29 2.485 0.012 11.657-5.043 23.865-7.313 35.798-6.79V19.524c-1.074-0.048-2.155-0.059-3.24-0.055v53.594l-0.852 0.056c-10.672 0.697-21.732 4.177-32.021 10.048-0.594 0.203-1.237 0.203-1.83 0-10.29-5.871-21.349-9.351-32.021-10.048l-0.854-0.056V19.469c-1.084-0.004-2.166 0.006-3.239 0.055v57.771C25.387 76.771 37.569 79.03 49.229 84.073z" fill="#ea3c12" data-fill-palette-color="accent"></path><path d="M92.579 26.009c-1.07-0.149-2.157-0.228-3.237-0.335v53.55l-0.968-0.056c-12.195-0.699-25.06 1.777-36.975 7.065l-0.916 0.381-0.915-0.381c-11.917-5.288-24.781-7.765-36.976-7.065l-0.967 0.056v-53.55c-1.081 0.108-2.168 0.187-3.238 0.335v58.707c0.594 0.307 1.044 0.748 1.044 0.748 12.951-1.75 26.393-1.536 39.18 2.651 0.588-0.058 1.212-0.095 1.873-0.095 0.661 0 1.285 0.037 1.872 0.095 12.785-4.188 26.229-4.401 39.179-2.651 0 0 0.474-0.462 1.044-0.748V26.009z" fill="#ea3c12" data-fill-palette-color="accent"></path><path d="M65.283 16.667v20.625l-3.98-4.738-4.195 4.738V19.994c-1.924 0.91-3.829 1.901-5.708 2.974v58.087c9.993-5.545 20.679-8.885 31.045-9.699V13.005C76.766 13.464 70.987 14.706 65.283 16.667z" fill="#ea3c12" data-fill-palette-color="accent"></path></g></svg></g></svg></g></svg></g></svg></g></svg></g></svg></g><defs></defs></svg><rect width="395.52" height="54.198885912444915" fill="none" stroke="none" visibility="hidden"></rect></g></svg></g></svg>